# xmcd
#
# Track frame offsets: 
#        150
#        11199
#        21800
#        43093
#        53403
#        67774
#        85381
#        103952
#        120697
#        131658
#        145412
#        157151
#        167165
#        184228
#        192657
#        205596
#        222386
#        237835
#        253163
#        269307
#        282020
#        291873
#        306284
#        320568
#        335073
#        345728
#        349211
#
# Disc length: 4778 seconds
#
# Revision: 2
# Processed by: cddbd v1.5.2PL0 Copyright (c) Steve Scherf et al.
# Submitted via: ExactAudioCopyFreeDBPlugin 1.0
#
DISCID=b112a81b
DTITLE=Various Artist - 2001 Country CD 1
DYEAR=1900
DGENRE=Country
TTITLE0=01 I'm A Nut (Leroy Pullins)
TTITLE1=02 Give Me Back My Heart (Steven Seagal and Marly Stuart)
TTITLE2=03 Sea Of Cowboy Hats (Chely Wright)
TTITLE3=04 Witch Doctor (David Seville)
TTITLE4=05 Why Me (Delbert McClinton)
TTITLE5=06 I Like It, I Love It (Tim McGraw)
TTITLE6=07 Another Puff (Jerry Reed)
TTITLE7=08 Apache (The Shadows)
TTITLE8=09 Chattahoochee (Alan Jackson)
TTITLE9=10 Ode To The Little Brown Shack Out Back (Billy Edd Wheeler)
TTITLE10=11 That's What I Like About You (Trisha Yearwood)
TTITLE11=12 I'm My Own Grandpaw (Homer and Jethro)
TTITLE12=13 Jose Cuervo (Tequila mix) (Kimber Clayton)
TTITLE13=14 When You're Hot, You're Hot (Jerry Reed)
TTITLE14=15 Muddy Rio Grande (Killbilly)
TTITLE15=16 Shooter (Rednex)
TTITLE16=17 The Gambler (Kenny Rogers)
TTITLE17=18 Colorado Cool-Aid (Johnny Paycheck)
TTITLE18=19 Hang My Head (Killbilly)
TTITLE19=20 Climb That Mountain High (Reba McEntire)
TTITLE20=21 Hey Porteer (Johnny Cach)
TTITLE21=22 You Done Me Wrong (Trisha Yearwood)
TTITLE22=23 Cotton Eye Joe (Rednex)
TTITLE23=24 The Streak (Ray Stevens)
TTITLE24=25 May The Bird Of Paradise Fly Up Your Nose (Jimmy Dickens)
TTITLE25=26 Saloon Brawl
TTITLE26=27 To Come Undone (Killbilly)
EXTD=
EXTT0=
EXTT1=
EXTT2=
EXTT3=
EXTT4=
EXTT5=
EXTT6=
EXTT7=
EXTT8=
EXTT9=
EXTT10=
EXTT11=
EXTT12=
EXTT13=
EXTT14=
EXTT15=
EXTT16=
EXTT17=
EXTT18=
EXTT19=
EXTT20=
EXTT21=
EXTT22=
EXTT23=
EXTT24=
EXTT25=
EXTT26=
PLAYORDER=
